<mxfile host="app.diagrams.net" modified="2023-11-20T02:03:17.887Z" agent="Mozilla/5.0 (Windows NT 10.0; Win64; x64) AppleWebKit/537.36 (KHTML, like Gecko) Chrome/119.0.0.0 Safari/537.36 Edg/119.0.0.0" etag="-HlixBi5cZSSEv75Lrky" version="22.1.3" type="device">
  <diagram name="Page-1" id="qo_Y8K8VYegqn7Wo1_kC">
    <mxGraphModel dx="1660" dy="902" grid="1" gridSize="5" guides="1" tooltips="1" connect="1" arrows="1" fold="1" page="1" pageScale="1" pageWidth="2339" pageHeight="3300" math="0" shadow="0">
      <root>
        <mxCell id="0" />
        <mxCell id="1" parent="0" />
        <mxCell id="wHdwL_rlRFG_409bep7D-1" value="" style="rounded=0;whiteSpace=wrap;html=1;" vertex="1" parent="1">
          <mxGeometry x="90" y="115" width="540" height="40" as="geometry" />
        </mxCell>
        <mxCell id="wHdwL_rlRFG_409bep7D-2" value="&lt;b&gt;Employee&lt;/b&gt;" style="text;html=1;align=center;verticalAlign=middle;resizable=0;points=[];autosize=1;strokeColor=none;fillColor=none;" vertex="1" parent="1">
          <mxGeometry x="80" y="90" width="80" height="30" as="geometry" />
        </mxCell>
        <mxCell id="wHdwL_rlRFG_409bep7D-3" value="&lt;u&gt;&lt;b&gt;Id&lt;/b&gt;&lt;/u&gt;" style="text;html=1;align=center;verticalAlign=middle;resizable=0;points=[];autosize=1;strokeColor=none;fillColor=none;" vertex="1" parent="1">
          <mxGeometry x="90" y="120" width="30" height="30" as="geometry" />
        </mxCell>
        <mxCell id="wHdwL_rlRFG_409bep7D-4" value="&lt;b&gt;Name&lt;/b&gt;" style="text;html=1;align=center;verticalAlign=middle;resizable=0;points=[];autosize=1;strokeColor=none;fillColor=none;" vertex="1" parent="1">
          <mxGeometry x="185" y="120" width="60" height="30" as="geometry" />
        </mxCell>
        <mxCell id="wHdwL_rlRFG_409bep7D-5" value="&lt;b&gt;Address&lt;/b&gt;" style="text;html=1;align=center;verticalAlign=middle;resizable=0;points=[];autosize=1;strokeColor=none;fillColor=none;" vertex="1" parent="1">
          <mxGeometry x="295" y="120" width="70" height="30" as="geometry" />
        </mxCell>
        <mxCell id="wHdwL_rlRFG_409bep7D-6" value="&lt;b&gt;Day&lt;/b&gt;" style="text;html=1;align=center;verticalAlign=middle;resizable=0;points=[];autosize=1;strokeColor=none;fillColor=none;" vertex="1" parent="1">
          <mxGeometry x="355" y="120" width="50" height="30" as="geometry" />
        </mxCell>
        <mxCell id="wHdwL_rlRFG_409bep7D-7" value="&lt;b&gt;Month&lt;/b&gt;" style="text;html=1;align=center;verticalAlign=middle;resizable=0;points=[];autosize=1;strokeColor=none;fillColor=none;" vertex="1" parent="1">
          <mxGeometry x="395" y="120" width="60" height="30" as="geometry" />
        </mxCell>
        <mxCell id="wHdwL_rlRFG_409bep7D-8" value="&lt;b&gt;Year&amp;nbsp;&amp;nbsp;&lt;/b&gt;" style="text;html=1;align=center;verticalAlign=middle;resizable=0;points=[];autosize=1;strokeColor=none;fillColor=none;" vertex="1" parent="1">
          <mxGeometry x="440" y="120" width="60" height="30" as="geometry" />
        </mxCell>
        <mxCell id="wHdwL_rlRFG_409bep7D-9" value="&lt;b&gt;Gender&lt;/b&gt;" style="text;html=1;align=center;verticalAlign=middle;resizable=0;points=[];autosize=1;strokeColor=none;fillColor=none;" vertex="1" parent="1">
          <mxGeometry x="235" y="120" width="70" height="30" as="geometry" />
        </mxCell>
        <mxCell id="wHdwL_rlRFG_409bep7D-10" value="&lt;b&gt;Position&lt;/b&gt;" style="text;html=1;align=center;verticalAlign=middle;resizable=0;points=[];autosize=1;strokeColor=none;fillColor=none;" vertex="1" parent="1">
          <mxGeometry x="485" y="120" width="70" height="30" as="geometry" />
        </mxCell>
        <mxCell id="wHdwL_rlRFG_409bep7D-16" value="" style="endArrow=none;html=1;rounded=0;" edge="1" parent="1">
          <mxGeometry width="50" height="50" relative="1" as="geometry">
            <mxPoint x="194.98999999999995" y="155" as="sourcePoint" />
            <mxPoint x="194.57999999999998" y="115" as="targetPoint" />
          </mxGeometry>
        </mxCell>
        <mxCell id="wHdwL_rlRFG_409bep7D-17" value="" style="endArrow=none;html=1;rounded=0;" edge="1" parent="1">
          <mxGeometry width="50" height="50" relative="1" as="geometry">
            <mxPoint x="395.40999999999997" y="155" as="sourcePoint" />
            <mxPoint x="395" y="115" as="targetPoint" />
          </mxGeometry>
        </mxCell>
        <mxCell id="wHdwL_rlRFG_409bep7D-18" value="" style="endArrow=none;html=1;rounded=0;" edge="1" parent="1">
          <mxGeometry width="50" height="50" relative="1" as="geometry">
            <mxPoint x="365.40999999999997" y="155" as="sourcePoint" />
            <mxPoint x="365" y="115" as="targetPoint" />
          </mxGeometry>
        </mxCell>
        <mxCell id="wHdwL_rlRFG_409bep7D-19" value="" style="endArrow=none;html=1;rounded=0;" edge="1" parent="1">
          <mxGeometry width="50" height="50" relative="1" as="geometry">
            <mxPoint x="295.40999999999997" y="155" as="sourcePoint" />
            <mxPoint x="295" y="115" as="targetPoint" />
          </mxGeometry>
        </mxCell>
        <mxCell id="wHdwL_rlRFG_409bep7D-20" value="" style="endArrow=none;html=1;rounded=0;" edge="1" parent="1">
          <mxGeometry width="50" height="50" relative="1" as="geometry">
            <mxPoint x="235.40999999999997" y="155" as="sourcePoint" />
            <mxPoint x="235" y="115" as="targetPoint" />
          </mxGeometry>
        </mxCell>
        <mxCell id="wHdwL_rlRFG_409bep7D-21" value="" style="endArrow=none;html=1;rounded=0;" edge="1" parent="1">
          <mxGeometry width="50" height="50" relative="1" as="geometry">
            <mxPoint x="125.40999999999997" y="155" as="sourcePoint" />
            <mxPoint x="125" y="115" as="targetPoint" />
          </mxGeometry>
        </mxCell>
        <mxCell id="wHdwL_rlRFG_409bep7D-23" value="" style="endArrow=none;html=1;rounded=0;" edge="1" parent="1">
          <mxGeometry width="50" height="50" relative="1" as="geometry">
            <mxPoint x="485.40999999999997" y="155" as="sourcePoint" />
            <mxPoint x="485" y="115" as="targetPoint" />
          </mxGeometry>
        </mxCell>
        <mxCell id="wHdwL_rlRFG_409bep7D-24" value="" style="endArrow=none;html=1;rounded=0;" edge="1" parent="1">
          <mxGeometry width="50" height="50" relative="1" as="geometry">
            <mxPoint x="445.40999999999997" y="155" as="sourcePoint" />
            <mxPoint x="445" y="115" as="targetPoint" />
          </mxGeometry>
        </mxCell>
        <mxCell id="wHdwL_rlRFG_409bep7D-26" value="" style="rounded=0;whiteSpace=wrap;html=1;" vertex="1" parent="1">
          <mxGeometry x="55" y="715" width="370" height="40" as="geometry" />
        </mxCell>
        <mxCell id="wHdwL_rlRFG_409bep7D-27" value="&lt;b&gt;Aircraft_Crew&lt;/b&gt;" style="text;html=1;align=center;verticalAlign=middle;resizable=0;points=[];autosize=1;strokeColor=none;fillColor=none;" vertex="1" parent="1">
          <mxGeometry x="45" y="690" width="100" height="30" as="geometry" />
        </mxCell>
        <mxCell id="wHdwL_rlRFG_409bep7D-28" value="&lt;b style=&quot;&quot;&gt;Id&lt;/b&gt;" style="text;html=1;align=center;verticalAlign=middle;resizable=0;points=[];autosize=1;strokeColor=none;fillColor=none;" vertex="1" parent="1">
          <mxGeometry x="55" y="720" width="30" height="30" as="geometry" />
        </mxCell>
        <mxCell id="wHdwL_rlRFG_409bep7D-29" value="&lt;b&gt;Model&lt;/b&gt;" style="text;html=1;align=center;verticalAlign=middle;resizable=0;points=[];autosize=1;strokeColor=none;fillColor=none;" vertex="1" parent="1">
          <mxGeometry x="85" y="720" width="60" height="30" as="geometry" />
        </mxCell>
        <mxCell id="wHdwL_rlRFG_409bep7D-30" value="&lt;b&gt;Maj_point&lt;/b&gt;" style="text;html=1;align=center;verticalAlign=middle;resizable=0;points=[];autosize=1;strokeColor=none;fillColor=none;" vertex="1" parent="1">
          <mxGeometry x="190" y="720" width="80" height="30" as="geometry" />
        </mxCell>
        <mxCell id="wHdwL_rlRFG_409bep7D-31" value="&lt;b&gt;&amp;nbsp; Assis_Pillot&lt;/b&gt;" style="text;html=1;align=center;verticalAlign=middle;resizable=0;points=[];autosize=1;strokeColor=none;fillColor=none;" vertex="1" parent="1">
          <mxGeometry x="250" y="720" width="100" height="30" as="geometry" />
        </mxCell>
        <mxCell id="wHdwL_rlRFG_409bep7D-33" value="&lt;b&gt;Host1&amp;nbsp;&amp;nbsp;&lt;/b&gt;" style="text;html=1;align=center;verticalAlign=middle;resizable=0;points=[];autosize=1;strokeColor=none;fillColor=none;" vertex="1" parent="1">
          <mxGeometry x="340" y="720" width="60" height="30" as="geometry" />
        </mxCell>
        <mxCell id="wHdwL_rlRFG_409bep7D-34" value="&lt;b&gt;Capacity&amp;nbsp;&lt;/b&gt;" style="text;html=1;align=center;verticalAlign=middle;resizable=0;points=[];autosize=1;strokeColor=none;fillColor=none;" vertex="1" parent="1">
          <mxGeometry x="125" y="720" width="80" height="30" as="geometry" />
        </mxCell>
        <mxCell id="wHdwL_rlRFG_409bep7D-35" value="&lt;b&gt;Host2&lt;/b&gt;" style="text;html=1;align=center;verticalAlign=middle;resizable=0;points=[];autosize=1;strokeColor=none;fillColor=none;" vertex="1" parent="1">
          <mxGeometry x="375" y="720" width="60" height="30" as="geometry" />
        </mxCell>
        <mxCell id="wHdwL_rlRFG_409bep7D-36" value="" style="endArrow=none;html=1;rounded=0;" edge="1" parent="1">
          <mxGeometry width="50" height="50" relative="1" as="geometry">
            <mxPoint x="94.99000000000001" y="755" as="sourcePoint" />
            <mxPoint x="94.57999999999993" y="715" as="targetPoint" />
          </mxGeometry>
        </mxCell>
        <mxCell id="wHdwL_rlRFG_409bep7D-38" value="" style="endArrow=none;html=1;rounded=0;" edge="1" parent="1">
          <mxGeometry width="50" height="50" relative="1" as="geometry">
            <mxPoint x="265.40999999999997" y="755" as="sourcePoint" />
            <mxPoint x="265" y="715" as="targetPoint" />
          </mxGeometry>
        </mxCell>
        <mxCell id="wHdwL_rlRFG_409bep7D-39" value="" style="endArrow=none;html=1;rounded=0;" edge="1" parent="1">
          <mxGeometry width="50" height="50" relative="1" as="geometry">
            <mxPoint x="195.40999999999997" y="755" as="sourcePoint" />
            <mxPoint x="195" y="715" as="targetPoint" />
          </mxGeometry>
        </mxCell>
        <mxCell id="wHdwL_rlRFG_409bep7D-40" value="" style="endArrow=none;html=1;rounded=0;" edge="1" parent="1">
          <mxGeometry width="50" height="50" relative="1" as="geometry">
            <mxPoint x="135.40999999999997" y="755" as="sourcePoint" />
            <mxPoint x="135" y="715" as="targetPoint" />
          </mxGeometry>
        </mxCell>
        <mxCell id="wHdwL_rlRFG_409bep7D-41" value="" style="endArrow=none;html=1;rounded=0;" edge="1" parent="1">
          <mxGeometry width="50" height="50" relative="1" as="geometry">
            <mxPoint x="385.40999999999997" y="755" as="sourcePoint" />
            <mxPoint x="385" y="715" as="targetPoint" />
          </mxGeometry>
        </mxCell>
        <mxCell id="wHdwL_rlRFG_409bep7D-42" value="" style="endArrow=none;html=1;rounded=0;" edge="1" parent="1">
          <mxGeometry width="50" height="50" relative="1" as="geometry">
            <mxPoint x="345.40999999999997" y="755" as="sourcePoint" />
            <mxPoint x="345" y="715" as="targetPoint" />
          </mxGeometry>
        </mxCell>
        <mxCell id="wHdwL_rlRFG_409bep7D-44" value="" style="rounded=0;whiteSpace=wrap;html=1;" vertex="1" parent="1">
          <mxGeometry x="90" y="235" width="140" height="40" as="geometry" />
        </mxCell>
        <mxCell id="wHdwL_rlRFG_409bep7D-45" value="&lt;b&gt;Employee_Qualifacations&lt;/b&gt;" style="text;html=1;align=center;verticalAlign=middle;resizable=0;points=[];autosize=1;strokeColor=none;fillColor=none;" vertex="1" parent="1">
          <mxGeometry x="80" y="210" width="170" height="30" as="geometry" />
        </mxCell>
        <mxCell id="wHdwL_rlRFG_409bep7D-46" value="&lt;u&gt;&lt;b&gt;Id&lt;/b&gt;&lt;/u&gt;" style="text;html=1;align=center;verticalAlign=middle;resizable=0;points=[];autosize=1;strokeColor=none;fillColor=none;" vertex="1" parent="1">
          <mxGeometry x="90" y="240" width="30" height="30" as="geometry" />
        </mxCell>
        <mxCell id="wHdwL_rlRFG_409bep7D-53" value="&lt;b&gt;Qualifications&lt;/b&gt;" style="text;html=1;align=center;verticalAlign=middle;resizable=0;points=[];autosize=1;strokeColor=none;fillColor=none;" vertex="1" parent="1">
          <mxGeometry x="130" y="240" width="100" height="30" as="geometry" />
        </mxCell>
        <mxCell id="wHdwL_rlRFG_409bep7D-59" value="" style="endArrow=none;html=1;rounded=0;" edge="1" parent="1">
          <mxGeometry width="50" height="50" relative="1" as="geometry">
            <mxPoint x="130.40999999999997" y="275" as="sourcePoint" />
            <mxPoint x="130" y="235" as="targetPoint" />
          </mxGeometry>
        </mxCell>
        <mxCell id="wHdwL_rlRFG_409bep7D-63" value="" style="endArrow=none;dashed=1;html=1;rounded=0;" edge="1" parent="1">
          <mxGeometry width="50" height="50" relative="1" as="geometry">
            <mxPoint x="132.5" y="149.67000000000002" as="sourcePoint" />
            <mxPoint x="187.5" y="149.67000000000002" as="targetPoint" />
          </mxGeometry>
        </mxCell>
        <mxCell id="wHdwL_rlRFG_409bep7D-64" value="" style="endArrow=none;dashed=1;html=1;rounded=0;" edge="1" parent="1">
          <mxGeometry width="50" height="50" relative="1" as="geometry">
            <mxPoint x="95" y="265.17" as="sourcePoint" />
            <mxPoint x="125" y="265" as="targetPoint" />
          </mxGeometry>
        </mxCell>
        <mxCell id="wHdwL_rlRFG_409bep7D-66" value="" style="endArrow=classic;html=1;rounded=0;exitX=0.041;exitY=0.644;exitDx=0;exitDy=0;exitPerimeter=0;entryX=-0.089;entryY=0.56;entryDx=0;entryDy=0;entryPerimeter=0;" edge="1" parent="1" source="wHdwL_rlRFG_409bep7D-46" target="wHdwL_rlRFG_409bep7D-3">
          <mxGeometry width="50" height="50" relative="1" as="geometry">
            <mxPoint x="290" y="330" as="sourcePoint" />
            <mxPoint x="340" y="280" as="targetPoint" />
            <Array as="points">
              <mxPoint x="50" y="260" />
              <mxPoint x="50" y="180" />
              <mxPoint x="50" y="137" />
            </Array>
          </mxGeometry>
        </mxCell>
        <mxCell id="wHdwL_rlRFG_409bep7D-67" value="" style="rounded=0;whiteSpace=wrap;html=1;" vertex="1" parent="1">
          <mxGeometry x="90" y="365" width="240" height="40" as="geometry" />
        </mxCell>
        <mxCell id="wHdwL_rlRFG_409bep7D-68" value="&lt;b&gt;Airline&lt;/b&gt;" style="text;html=1;align=center;verticalAlign=middle;resizable=0;points=[];autosize=1;strokeColor=none;fillColor=none;" vertex="1" parent="1">
          <mxGeometry x="80" y="340" width="60" height="30" as="geometry" />
        </mxCell>
        <mxCell id="wHdwL_rlRFG_409bep7D-69" value="&lt;u&gt;&lt;b&gt;Id&lt;/b&gt;&lt;/u&gt;" style="text;html=1;align=center;verticalAlign=middle;resizable=0;points=[];autosize=1;strokeColor=none;fillColor=none;" vertex="1" parent="1">
          <mxGeometry x="90" y="370" width="30" height="30" as="geometry" />
        </mxCell>
        <mxCell id="wHdwL_rlRFG_409bep7D-70" value="&lt;b&gt;Name&lt;/b&gt;" style="text;html=1;align=center;verticalAlign=middle;resizable=0;points=[];autosize=1;strokeColor=none;fillColor=none;" vertex="1" parent="1">
          <mxGeometry x="120" y="370" width="60" height="30" as="geometry" />
        </mxCell>
        <mxCell id="wHdwL_rlRFG_409bep7D-71" value="&lt;b&gt;Address&amp;nbsp; &amp;nbsp;&lt;/b&gt;" style="text;html=1;align=center;verticalAlign=middle;resizable=0;points=[];autosize=1;strokeColor=none;fillColor=none;" vertex="1" parent="1">
          <mxGeometry x="165" y="370" width="80" height="30" as="geometry" />
        </mxCell>
        <mxCell id="wHdwL_rlRFG_409bep7D-75" value="&lt;b&gt;Contact-Person&lt;/b&gt;" style="text;html=1;align=center;verticalAlign=middle;resizable=0;points=[];autosize=1;strokeColor=none;fillColor=none;" vertex="1" parent="1">
          <mxGeometry x="225" y="370" width="110" height="30" as="geometry" />
        </mxCell>
        <mxCell id="wHdwL_rlRFG_409bep7D-77" value="" style="endArrow=none;html=1;rounded=0;" edge="1" parent="1">
          <mxGeometry width="50" height="50" relative="1" as="geometry">
            <mxPoint x="129.98999999999995" y="405" as="sourcePoint" />
            <mxPoint x="129.57999999999998" y="365" as="targetPoint" />
          </mxGeometry>
        </mxCell>
        <mxCell id="wHdwL_rlRFG_409bep7D-80" value="" style="endArrow=none;html=1;rounded=0;" edge="1" parent="1">
          <mxGeometry width="50" height="50" relative="1" as="geometry">
            <mxPoint x="230.40999999999997" y="405" as="sourcePoint" />
            <mxPoint x="230" y="365" as="targetPoint" />
          </mxGeometry>
        </mxCell>
        <mxCell id="wHdwL_rlRFG_409bep7D-81" value="" style="endArrow=none;html=1;rounded=0;" edge="1" parent="1">
          <mxGeometry width="50" height="50" relative="1" as="geometry">
            <mxPoint x="170.40999999999997" y="405" as="sourcePoint" />
            <mxPoint x="170" y="365" as="targetPoint" />
          </mxGeometry>
        </mxCell>
        <mxCell id="wHdwL_rlRFG_409bep7D-84" value="" style="rounded=0;whiteSpace=wrap;html=1;" vertex="1" parent="1">
          <mxGeometry x="90" y="485" width="90" height="40" as="geometry" />
        </mxCell>
        <mxCell id="wHdwL_rlRFG_409bep7D-85" value="&lt;b&gt;Airline_Phones&lt;/b&gt;" style="text;html=1;align=center;verticalAlign=middle;resizable=0;points=[];autosize=1;strokeColor=none;fillColor=none;" vertex="1" parent="1">
          <mxGeometry x="80" y="460" width="110" height="30" as="geometry" />
        </mxCell>
        <mxCell id="wHdwL_rlRFG_409bep7D-86" value="&lt;b style=&quot;&quot;&gt;Id&lt;/b&gt;" style="text;html=1;align=center;verticalAlign=middle;resizable=0;points=[];autosize=1;strokeColor=none;fillColor=none;" vertex="1" parent="1">
          <mxGeometry x="90" y="490" width="30" height="30" as="geometry" />
        </mxCell>
        <mxCell id="wHdwL_rlRFG_409bep7D-90" value="" style="endArrow=none;html=1;rounded=0;" edge="1" parent="1">
          <mxGeometry width="50" height="50" relative="1" as="geometry">
            <mxPoint x="129.98999999999995" y="525" as="sourcePoint" />
            <mxPoint x="129.57999999999998" y="485" as="targetPoint" />
          </mxGeometry>
        </mxCell>
        <mxCell id="wHdwL_rlRFG_409bep7D-93" value="&lt;b&gt;Phones&lt;/b&gt;" style="text;html=1;align=center;verticalAlign=middle;resizable=0;points=[];autosize=1;strokeColor=none;fillColor=none;" vertex="1" parent="1">
          <mxGeometry x="120" y="490" width="70" height="30" as="geometry" />
        </mxCell>
        <mxCell id="wHdwL_rlRFG_409bep7D-94" value="" style="endArrow=classic;html=1;rounded=0;exitX=0.022;exitY=0.533;exitDx=0;exitDy=0;exitPerimeter=0;entryX=0.022;entryY=0.6;entryDx=0;entryDy=0;entryPerimeter=0;" edge="1" parent="1" source="wHdwL_rlRFG_409bep7D-86" target="wHdwL_rlRFG_409bep7D-69">
          <mxGeometry width="50" height="50" relative="1" as="geometry">
            <mxPoint x="330" y="460" as="sourcePoint" />
            <mxPoint x="40" y="506" as="targetPoint" />
            <Array as="points">
              <mxPoint x="60" y="506" />
              <mxPoint x="60" y="388" />
            </Array>
          </mxGeometry>
        </mxCell>
        <mxCell id="wHdwL_rlRFG_409bep7D-107" value="" style="rounded=0;whiteSpace=wrap;html=1;" vertex="1" parent="1">
          <mxGeometry x="67.5" y="615" width="195" height="40" as="geometry" />
        </mxCell>
        <mxCell id="wHdwL_rlRFG_409bep7D-108" value="&lt;b&gt;Aircraft&lt;/b&gt;" style="text;html=1;align=center;verticalAlign=middle;resizable=0;points=[];autosize=1;strokeColor=none;fillColor=none;" vertex="1" parent="1">
          <mxGeometry x="55" y="590" width="70" height="30" as="geometry" />
        </mxCell>
        <mxCell id="wHdwL_rlRFG_409bep7D-109" value="&lt;u&gt;&lt;b&gt;Id&lt;/b&gt;&lt;/u&gt;" style="text;html=1;align=center;verticalAlign=middle;resizable=0;points=[];autosize=1;strokeColor=none;fillColor=none;" vertex="1" parent="1">
          <mxGeometry x="65" y="620" width="30" height="30" as="geometry" />
        </mxCell>
        <mxCell id="wHdwL_rlRFG_409bep7D-110" value="&lt;b&gt;Model&lt;/b&gt;" style="text;html=1;align=center;verticalAlign=middle;resizable=0;points=[];autosize=1;strokeColor=none;fillColor=none;" vertex="1" parent="1">
          <mxGeometry x="145.5" y="620" width="60" height="30" as="geometry" />
        </mxCell>
        <mxCell id="wHdwL_rlRFG_409bep7D-114" value="&lt;b&gt;Capacity&amp;nbsp;&lt;/b&gt;" style="text;html=1;align=center;verticalAlign=middle;resizable=0;points=[];autosize=1;strokeColor=none;fillColor=none;" vertex="1" parent="1">
          <mxGeometry x="185.5" y="620" width="80" height="30" as="geometry" />
        </mxCell>
        <mxCell id="wHdwL_rlRFG_409bep7D-116" value="" style="endArrow=none;html=1;rounded=0;" edge="1" parent="1">
          <mxGeometry width="50" height="50" relative="1" as="geometry">
            <mxPoint x="155.49" y="655" as="sourcePoint" />
            <mxPoint x="155.07999999999993" y="615" as="targetPoint" />
          </mxGeometry>
        </mxCell>
        <mxCell id="wHdwL_rlRFG_409bep7D-119" value="" style="endArrow=none;html=1;rounded=0;" edge="1" parent="1">
          <mxGeometry width="50" height="50" relative="1" as="geometry">
            <mxPoint x="195.90999999999997" y="655" as="sourcePoint" />
            <mxPoint x="195.5" y="615" as="targetPoint" />
          </mxGeometry>
        </mxCell>
        <mxCell id="wHdwL_rlRFG_409bep7D-122" value="" style="rounded=0;whiteSpace=wrap;html=1;" vertex="1" parent="1">
          <mxGeometry x="440" y="365" width="280" height="40" as="geometry" />
        </mxCell>
        <mxCell id="wHdwL_rlRFG_409bep7D-123" value="&lt;b&gt;Transaction&lt;/b&gt;" style="text;html=1;align=center;verticalAlign=middle;resizable=0;points=[];autosize=1;strokeColor=none;fillColor=none;" vertex="1" parent="1">
          <mxGeometry x="425" y="340" width="90" height="30" as="geometry" />
        </mxCell>
        <mxCell id="wHdwL_rlRFG_409bep7D-124" value="&lt;u&gt;&lt;b&gt;Id&lt;/b&gt;&lt;/u&gt;" style="text;html=1;align=center;verticalAlign=middle;resizable=0;points=[];autosize=1;strokeColor=none;fillColor=none;" vertex="1" parent="1">
          <mxGeometry x="500" y="370" width="30" height="30" as="geometry" />
        </mxCell>
        <mxCell id="wHdwL_rlRFG_409bep7D-125" value="&lt;b&gt;Date&lt;/b&gt;" style="text;html=1;align=center;verticalAlign=middle;resizable=0;points=[];autosize=1;strokeColor=none;fillColor=none;" vertex="1" parent="1">
          <mxGeometry x="530" y="370" width="50" height="30" as="geometry" />
        </mxCell>
        <mxCell id="wHdwL_rlRFG_409bep7D-126" value="&lt;b&gt;amount&lt;/b&gt;" style="text;html=1;align=center;verticalAlign=middle;resizable=0;points=[];autosize=1;strokeColor=none;fillColor=none;" vertex="1" parent="1">
          <mxGeometry x="570" y="370" width="70" height="30" as="geometry" />
        </mxCell>
        <mxCell id="wHdwL_rlRFG_409bep7D-127" value="&lt;b&gt;Description&lt;/b&gt;" style="text;html=1;align=center;verticalAlign=middle;resizable=0;points=[];autosize=1;strokeColor=none;fillColor=none;" vertex="1" parent="1">
          <mxGeometry x="635" y="370" width="90" height="30" as="geometry" />
        </mxCell>
        <mxCell id="wHdwL_rlRFG_409bep7D-128" value="" style="endArrow=none;html=1;rounded=0;" edge="1" parent="1">
          <mxGeometry width="50" height="50" relative="1" as="geometry">
            <mxPoint x="534.99" y="405" as="sourcePoint" />
            <mxPoint x="534.5799999999999" y="365" as="targetPoint" />
          </mxGeometry>
        </mxCell>
        <mxCell id="wHdwL_rlRFG_409bep7D-129" value="" style="endArrow=none;html=1;rounded=0;" edge="1" parent="1">
          <mxGeometry width="50" height="50" relative="1" as="geometry">
            <mxPoint x="635.41" y="405" as="sourcePoint" />
            <mxPoint x="635" y="365" as="targetPoint" />
          </mxGeometry>
        </mxCell>
        <mxCell id="wHdwL_rlRFG_409bep7D-130" value="" style="endArrow=none;html=1;rounded=0;" edge="1" parent="1">
          <mxGeometry width="50" height="50" relative="1" as="geometry">
            <mxPoint x="575.41" y="405" as="sourcePoint" />
            <mxPoint x="575" y="365" as="targetPoint" />
          </mxGeometry>
        </mxCell>
        <mxCell id="wHdwL_rlRFG_409bep7D-131" value="" style="rounded=0;whiteSpace=wrap;html=1;" vertex="1" parent="1">
          <mxGeometry x="680" y="615" width="300" height="40" as="geometry" />
        </mxCell>
        <mxCell id="wHdwL_rlRFG_409bep7D-132" value="&lt;b&gt;Route&lt;/b&gt;" style="text;html=1;align=center;verticalAlign=middle;resizable=0;points=[];autosize=1;strokeColor=none;fillColor=none;" vertex="1" parent="1">
          <mxGeometry x="670" y="590" width="60" height="30" as="geometry" />
        </mxCell>
        <mxCell id="wHdwL_rlRFG_409bep7D-133" value="&lt;u&gt;&lt;b&gt;Id&lt;/b&gt;&lt;/u&gt;" style="text;html=1;align=center;verticalAlign=middle;resizable=0;points=[];autosize=1;strokeColor=none;fillColor=none;" vertex="1" parent="1">
          <mxGeometry x="680" y="620" width="30" height="30" as="geometry" />
        </mxCell>
        <mxCell id="wHdwL_rlRFG_409bep7D-134" value="&lt;b&gt;Origin&lt;/b&gt;" style="text;html=1;align=center;verticalAlign=middle;resizable=0;points=[];autosize=1;strokeColor=none;fillColor=none;" vertex="1" parent="1">
          <mxGeometry x="710" y="620" width="60" height="30" as="geometry" />
        </mxCell>
        <mxCell id="wHdwL_rlRFG_409bep7D-135" value="&lt;b&gt;Destination&lt;/b&gt;" style="text;html=1;align=center;verticalAlign=middle;resizable=0;points=[];autosize=1;strokeColor=none;fillColor=none;" vertex="1" parent="1">
          <mxGeometry x="810" y="620" width="90" height="30" as="geometry" />
        </mxCell>
        <mxCell id="wHdwL_rlRFG_409bep7D-137" value="&lt;b&gt;Classification&amp;nbsp;&amp;nbsp;&lt;/b&gt;" style="text;html=1;align=center;verticalAlign=middle;resizable=0;points=[];autosize=1;strokeColor=none;fillColor=none;" vertex="1" parent="1">
          <mxGeometry x="885" y="620" width="110" height="30" as="geometry" />
        </mxCell>
        <mxCell id="wHdwL_rlRFG_409bep7D-139" value="&lt;b&gt;Distance&amp;nbsp;&amp;nbsp;&lt;/b&gt;" style="text;html=1;align=center;verticalAlign=middle;resizable=0;points=[];autosize=1;strokeColor=none;fillColor=none;" vertex="1" parent="1">
          <mxGeometry x="755" y="620" width="80" height="30" as="geometry" />
        </mxCell>
        <mxCell id="wHdwL_rlRFG_409bep7D-141" value="" style="endArrow=none;html=1;rounded=0;" edge="1" parent="1">
          <mxGeometry width="50" height="50" relative="1" as="geometry">
            <mxPoint x="719.99" y="655" as="sourcePoint" />
            <mxPoint x="719.5799999999999" y="615" as="targetPoint" />
          </mxGeometry>
        </mxCell>
        <mxCell id="wHdwL_rlRFG_409bep7D-143" value="" style="endArrow=none;html=1;rounded=0;" edge="1" parent="1">
          <mxGeometry width="50" height="50" relative="1" as="geometry">
            <mxPoint x="890.41" y="655" as="sourcePoint" />
            <mxPoint x="890" y="615" as="targetPoint" />
          </mxGeometry>
        </mxCell>
        <mxCell id="wHdwL_rlRFG_409bep7D-144" value="" style="endArrow=none;html=1;rounded=0;" edge="1" parent="1">
          <mxGeometry width="50" height="50" relative="1" as="geometry">
            <mxPoint x="820.41" y="655" as="sourcePoint" />
            <mxPoint x="820" y="615" as="targetPoint" />
          </mxGeometry>
        </mxCell>
        <mxCell id="wHdwL_rlRFG_409bep7D-145" value="" style="endArrow=none;html=1;rounded=0;" edge="1" parent="1">
          <mxGeometry width="50" height="50" relative="1" as="geometry">
            <mxPoint x="760.41" y="655" as="sourcePoint" />
            <mxPoint x="760" y="615" as="targetPoint" />
          </mxGeometry>
        </mxCell>
        <mxCell id="wHdwL_rlRFG_409bep7D-148" value="" style="rounded=0;whiteSpace=wrap;html=1;" vertex="1" parent="1">
          <mxGeometry x="60" y="820" width="300" height="40" as="geometry" />
        </mxCell>
        <mxCell id="wHdwL_rlRFG_409bep7D-149" value="&lt;b&gt;Crew&lt;/b&gt;" style="text;html=1;align=center;verticalAlign=middle;resizable=0;points=[];autosize=1;strokeColor=none;fillColor=none;" vertex="1" parent="1">
          <mxGeometry x="55" y="790" width="50" height="30" as="geometry" />
        </mxCell>
        <mxCell id="wHdwL_rlRFG_409bep7D-150" value="&lt;b&gt;Maj_Pilot&lt;/b&gt;" style="text;html=1;align=center;verticalAlign=middle;resizable=0;points=[];autosize=1;strokeColor=none;fillColor=none;" vertex="1" parent="1">
          <mxGeometry x="115" y="825" width="80" height="30" as="geometry" />
        </mxCell>
        <mxCell id="wHdwL_rlRFG_409bep7D-151" value="&lt;b&gt;Assis_Pilot&lt;/b&gt;" style="text;html=1;align=center;verticalAlign=middle;resizable=0;points=[];autosize=1;strokeColor=none;fillColor=none;" vertex="1" parent="1">
          <mxGeometry x="184.5" y="825" width="90" height="30" as="geometry" />
        </mxCell>
        <mxCell id="wHdwL_rlRFG_409bep7D-152" value="&lt;b&gt;Host1&lt;/b&gt;" style="text;html=1;align=center;verticalAlign=middle;resizable=0;points=[];autosize=1;strokeColor=none;fillColor=none;" vertex="1" parent="1">
          <mxGeometry x="265" y="825" width="60" height="30" as="geometry" />
        </mxCell>
        <mxCell id="wHdwL_rlRFG_409bep7D-153" value="&lt;b&gt;Host2&lt;/b&gt;" style="text;html=1;align=center;verticalAlign=middle;resizable=0;points=[];autosize=1;strokeColor=none;fillColor=none;" vertex="1" parent="1">
          <mxGeometry x="310" y="825" width="60" height="30" as="geometry" />
        </mxCell>
        <mxCell id="wHdwL_rlRFG_409bep7D-154" value="" style="endArrow=none;html=1;rounded=0;" edge="1" parent="1">
          <mxGeometry width="50" height="50" relative="1" as="geometry">
            <mxPoint x="119.57999999999993" y="860" as="sourcePoint" />
            <mxPoint x="119.17000000000007" y="820" as="targetPoint" />
          </mxGeometry>
        </mxCell>
        <mxCell id="wHdwL_rlRFG_409bep7D-155" value="" style="endArrow=none;html=1;rounded=0;" edge="1" parent="1">
          <mxGeometry width="50" height="50" relative="1" as="geometry">
            <mxPoint x="315.40999999999997" y="860" as="sourcePoint" />
            <mxPoint x="315" y="820" as="targetPoint" />
          </mxGeometry>
        </mxCell>
        <mxCell id="wHdwL_rlRFG_409bep7D-158" value="" style="endArrow=none;html=1;rounded=0;" edge="1" parent="1">
          <mxGeometry width="50" height="50" relative="1" as="geometry">
            <mxPoint x="270.40999999999997" y="860" as="sourcePoint" />
            <mxPoint x="270" y="820" as="targetPoint" />
          </mxGeometry>
        </mxCell>
        <mxCell id="wHdwL_rlRFG_409bep7D-159" value="" style="endArrow=none;dashed=1;html=1;rounded=0;" edge="1" parent="1">
          <mxGeometry width="50" height="50" relative="1" as="geometry">
            <mxPoint x="96.25" y="515" as="sourcePoint" />
            <mxPoint x="123.75" y="515" as="targetPoint" />
          </mxGeometry>
        </mxCell>
        <mxCell id="wHdwL_rlRFG_409bep7D-160" value="" style="endArrow=none;html=1;rounded=0;" edge="1" parent="1">
          <mxGeometry width="50" height="50" relative="1" as="geometry">
            <mxPoint x="176.88" y="519" as="sourcePoint" />
            <mxPoint x="93.13" y="519" as="targetPoint" />
          </mxGeometry>
        </mxCell>
        <mxCell id="wHdwL_rlRFG_409bep7D-161" value="" style="endArrow=none;html=1;rounded=0;exitX=0.953;exitY=0.982;exitDx=0;exitDy=0;exitPerimeter=0;" edge="1" parent="1" source="wHdwL_rlRFG_409bep7D-53">
          <mxGeometry width="50" height="50" relative="1" as="geometry">
            <mxPoint x="176.88" y="269.67" as="sourcePoint" />
            <mxPoint x="93.13" y="269.67" as="targetPoint" />
          </mxGeometry>
        </mxCell>
        <mxCell id="wHdwL_rlRFG_409bep7D-162" value="" style="endArrow=none;html=1;rounded=0;" edge="1" parent="1">
          <mxGeometry width="50" height="50" relative="1" as="geometry">
            <mxPoint x="194.57999999999993" y="860" as="sourcePoint" />
            <mxPoint x="194.17000000000007" y="820" as="targetPoint" />
          </mxGeometry>
        </mxCell>
        <mxCell id="wHdwL_rlRFG_409bep7D-163" value="&lt;b&gt;AC_id&lt;/b&gt;" style="text;html=1;align=center;verticalAlign=middle;resizable=0;points=[];autosize=1;strokeColor=none;fillColor=none;" vertex="1" parent="1">
          <mxGeometry x="60" y="825" width="60" height="30" as="geometry" />
        </mxCell>
        <mxCell id="wHdwL_rlRFG_409bep7D-164" value="" style="endArrow=none;dashed=1;html=1;rounded=0;entryX=0.833;entryY=0.833;entryDx=0;entryDy=0;entryPerimeter=0;" edge="1" parent="1" target="wHdwL_rlRFG_409bep7D-163">
          <mxGeometry width="50" height="50" relative="1" as="geometry">
            <mxPoint x="66.25" y="850" as="sourcePoint" />
            <mxPoint x="93.75" y="850" as="targetPoint" />
          </mxGeometry>
        </mxCell>
        <mxCell id="wHdwL_rlRFG_409bep7D-166" value="" style="endArrow=classic;html=1;rounded=0;exitX=-0.009;exitY=0.646;exitDx=0;exitDy=0;exitPerimeter=0;entryX=0.002;entryY=0.631;entryDx=0;entryDy=0;entryPerimeter=0;" edge="1" parent="1" source="wHdwL_rlRFG_409bep7D-163" target="wHdwL_rlRFG_409bep7D-107">
          <mxGeometry width="50" height="50" relative="1" as="geometry">
            <mxPoint x="29.579999999999927" y="843.54" as="sourcePoint" />
            <mxPoint x="60" y="640" as="targetPoint" />
            <Array as="points">
              <mxPoint x="10" y="844" />
              <mxPoint x="10" y="640" />
            </Array>
          </mxGeometry>
        </mxCell>
        <mxCell id="wHdwL_rlRFG_409bep7D-167" value="" style="endArrow=none;dashed=1;html=1;rounded=0;entryX=0.833;entryY=0.833;entryDx=0;entryDy=0;entryPerimeter=0;" edge="1" parent="1">
          <mxGeometry width="50" height="50" relative="1" as="geometry">
            <mxPoint x="76.25" y="860" as="sourcePoint" />
            <mxPoint x="120" y="860" as="targetPoint" />
          </mxGeometry>
        </mxCell>
        <mxCell id="wHdwL_rlRFG_409bep7D-168" value="" style="endArrow=none;dashed=1;html=1;rounded=0;" edge="1" parent="1">
          <mxGeometry width="50" height="50" relative="1" as="geometry">
            <mxPoint x="60" y="749.72" as="sourcePoint" />
            <mxPoint x="88.75" y="749.72" as="targetPoint" />
          </mxGeometry>
        </mxCell>
        <mxCell id="wHdwL_rlRFG_409bep7D-169" value="" style="endArrow=classic;html=1;rounded=0;exitX=-0.061;exitY=0.603;exitDx=0;exitDy=0;exitPerimeter=0;entryX=-0.001;entryY=0.879;entryDx=0;entryDy=0;entryPerimeter=0;" edge="1" parent="1" source="wHdwL_rlRFG_409bep7D-28" target="wHdwL_rlRFG_409bep7D-107">
          <mxGeometry width="50" height="50" relative="1" as="geometry">
            <mxPoint x="20" y="740" as="sourcePoint" />
            <mxPoint x="60" y="650" as="targetPoint" />
            <Array as="points">
              <mxPoint x="30" y="738" />
              <mxPoint x="30" y="650" />
            </Array>
          </mxGeometry>
        </mxCell>
        <mxCell id="wHdwL_rlRFG_409bep7D-170" value="&lt;b style=&quot;border-color: var(--border-color);&quot;&gt;Airline_id&lt;/b&gt;" style="text;html=1;align=center;verticalAlign=middle;resizable=0;points=[];autosize=1;strokeColor=none;fillColor=none;" vertex="1" parent="1">
          <mxGeometry x="120" y="120" width="80" height="30" as="geometry" />
        </mxCell>
        <mxCell id="wHdwL_rlRFG_409bep7D-171" value="" style="endArrow=classic;html=1;rounded=0;exitX=0.13;exitY=1.125;exitDx=0;exitDy=0;exitPerimeter=0;entryX=-0.025;entryY=0.268;entryDx=0;entryDy=0;entryPerimeter=0;" edge="1" parent="1" source="wHdwL_rlRFG_409bep7D-1" target="wHdwL_rlRFG_409bep7D-69">
          <mxGeometry width="50" height="50" relative="1" as="geometry">
            <mxPoint x="270" y="360" as="sourcePoint" />
            <mxPoint x="60" y="320" as="targetPoint" />
            <Array as="points">
              <mxPoint x="160" y="200" />
              <mxPoint x="280" y="200" />
              <mxPoint x="280" y="320" />
              <mxPoint x="70" y="320" />
              <mxPoint x="70" y="350" />
              <mxPoint x="70" y="378" />
            </Array>
          </mxGeometry>
        </mxCell>
        <mxCell id="wHdwL_rlRFG_409bep7D-172" value="" style="endArrow=none;html=1;rounded=0;" edge="1" parent="1">
          <mxGeometry width="50" height="50" relative="1" as="geometry">
            <mxPoint x="500.40999999999997" y="405" as="sourcePoint" />
            <mxPoint x="499.9999999999999" y="365" as="targetPoint" />
          </mxGeometry>
        </mxCell>
        <mxCell id="wHdwL_rlRFG_409bep7D-173" value="&lt;b style=&quot;border-color: var(--border-color);&quot;&gt;Airline_id&lt;/b&gt;" style="text;html=1;align=center;verticalAlign=middle;resizable=0;points=[];autosize=1;strokeColor=none;fillColor=none;" vertex="1" parent="1">
          <mxGeometry x="430" y="370" width="80" height="30" as="geometry" />
        </mxCell>
        <mxCell id="wHdwL_rlRFG_409bep7D-174" value="" style="endArrow=none;dashed=1;html=1;rounded=0;" edge="1" parent="1">
          <mxGeometry width="50" height="50" relative="1" as="geometry">
            <mxPoint x="445" y="399.77" as="sourcePoint" />
            <mxPoint x="495" y="399.77" as="targetPoint" />
          </mxGeometry>
        </mxCell>
        <mxCell id="wHdwL_rlRFG_409bep7D-175" value="" style="endArrow=classic;html=1;rounded=0;exitX=0.1;exitY=1.006;exitDx=0;exitDy=0;exitPerimeter=0;entryX=0.088;entryY=1.061;entryDx=0;entryDy=0;entryPerimeter=0;" edge="1" parent="1" source="wHdwL_rlRFG_409bep7D-122" target="wHdwL_rlRFG_409bep7D-67">
          <mxGeometry width="50" height="50" relative="1" as="geometry">
            <mxPoint x="320" y="370" as="sourcePoint" />
            <mxPoint x="370" y="320" as="targetPoint" />
            <Array as="points">
              <mxPoint x="468" y="440" />
              <mxPoint x="110" y="440" />
            </Array>
          </mxGeometry>
        </mxCell>
        <mxCell id="wHdwL_rlRFG_409bep7D-176" value="" style="endArrow=none;html=1;rounded=0;" edge="1" parent="1">
          <mxGeometry width="50" height="50" relative="1" as="geometry">
            <mxPoint x="95.41000000000003" y="655" as="sourcePoint" />
            <mxPoint x="94.99999999999994" y="615" as="targetPoint" />
          </mxGeometry>
        </mxCell>
        <mxCell id="wHdwL_rlRFG_409bep7D-177" value="&lt;b style=&quot;border-color: var(--border-color);&quot;&gt;Airline_id&lt;/b&gt;" style="text;html=1;align=center;verticalAlign=middle;resizable=0;points=[];autosize=1;strokeColor=none;fillColor=none;" vertex="1" parent="1">
          <mxGeometry x="85" y="619.77" width="80" height="30" as="geometry" />
        </mxCell>
        <mxCell id="wHdwL_rlRFG_409bep7D-178" value="" style="endArrow=none;dashed=1;html=1;rounded=0;" edge="1" parent="1">
          <mxGeometry width="50" height="50" relative="1" as="geometry">
            <mxPoint x="100" y="649.54" as="sourcePoint" />
            <mxPoint x="150" y="649.54" as="targetPoint" />
          </mxGeometry>
        </mxCell>
        <mxCell id="wHdwL_rlRFG_409bep7D-179" value="" style="rounded=0;whiteSpace=wrap;html=1;" vertex="1" parent="1">
          <mxGeometry x="680" y="815" width="330" height="40" as="geometry" />
        </mxCell>
        <mxCell id="wHdwL_rlRFG_409bep7D-180" value="&lt;b&gt;Aircraft_Route&lt;/b&gt;" style="text;html=1;align=center;verticalAlign=middle;resizable=0;points=[];autosize=1;strokeColor=none;fillColor=none;" vertex="1" parent="1">
          <mxGeometry x="670" y="790" width="110" height="30" as="geometry" />
        </mxCell>
        <mxCell id="wHdwL_rlRFG_409bep7D-181" value="&lt;b&gt;AC_id&lt;/b&gt;" style="text;html=1;align=center;verticalAlign=middle;resizable=0;points=[];autosize=1;strokeColor=none;fillColor=none;" vertex="1" parent="1">
          <mxGeometry x="670" y="820" width="60" height="30" as="geometry" />
        </mxCell>
        <mxCell id="wHdwL_rlRFG_409bep7D-186" value="" style="endArrow=none;html=1;rounded=0;" edge="1" parent="1">
          <mxGeometry width="50" height="50" relative="1" as="geometry">
            <mxPoint x="719.99" y="855" as="sourcePoint" />
            <mxPoint x="719.5799999999999" y="815" as="targetPoint" />
          </mxGeometry>
        </mxCell>
        <mxCell id="wHdwL_rlRFG_409bep7D-187" value="" style="endArrow=none;html=1;rounded=0;" edge="1" parent="1">
          <mxGeometry width="50" height="50" relative="1" as="geometry">
            <mxPoint x="755.41" y="855" as="sourcePoint" />
            <mxPoint x="755" y="815" as="targetPoint" />
          </mxGeometry>
        </mxCell>
        <mxCell id="wHdwL_rlRFG_409bep7D-190" value="" style="endArrow=classic;html=1;rounded=0;exitX=0.335;exitY=-0.028;exitDx=0;exitDy=0;exitPerimeter=0;entryX=-0.031;entryY=0.352;entryDx=0;entryDy=0;entryPerimeter=0;" edge="1" parent="1" source="wHdwL_rlRFG_409bep7D-107" target="wHdwL_rlRFG_409bep7D-69">
          <mxGeometry width="50" height="50" relative="1" as="geometry">
            <mxPoint x="170" y="620" as="sourcePoint" />
            <mxPoint x="40" y="380" as="targetPoint" />
            <Array as="points">
              <mxPoint x="133" y="580" />
              <mxPoint x="40" y="580" />
              <mxPoint x="40" y="380" />
            </Array>
          </mxGeometry>
        </mxCell>
        <mxCell id="wHdwL_rlRFG_409bep7D-191" value="&lt;b&gt;R_id&amp;nbsp;&lt;/b&gt;" style="text;html=1;align=center;verticalAlign=middle;resizable=0;points=[];autosize=1;strokeColor=none;fillColor=none;" vertex="1" parent="1">
          <mxGeometry x="715" y="820" width="50" height="30" as="geometry" />
        </mxCell>
        <mxCell id="wHdwL_rlRFG_409bep7D-192" value="&lt;b&gt;NOP&lt;/b&gt;" style="text;html=1;align=center;verticalAlign=middle;resizable=0;points=[];autosize=1;strokeColor=none;fillColor=none;" vertex="1" parent="1">
          <mxGeometry x="750" y="820" width="50" height="30" as="geometry" />
        </mxCell>
        <mxCell id="wHdwL_rlRFG_409bep7D-193" value="&lt;b&gt;Price&lt;/b&gt;" style="text;html=1;align=center;verticalAlign=middle;resizable=0;points=[];autosize=1;strokeColor=none;fillColor=none;" vertex="1" parent="1">
          <mxGeometry x="785" y="820" width="50" height="30" as="geometry" />
        </mxCell>
        <mxCell id="wHdwL_rlRFG_409bep7D-194" value="&lt;b&gt;Departure&lt;/b&gt;" style="text;html=1;align=center;verticalAlign=middle;resizable=0;points=[];autosize=1;strokeColor=none;fillColor=none;" vertex="1" parent="1">
          <mxGeometry x="820" y="820" width="80" height="30" as="geometry" />
        </mxCell>
        <mxCell id="wHdwL_rlRFG_409bep7D-195" value="&lt;b&gt;Arrival&lt;/b&gt;" style="text;html=1;align=center;verticalAlign=middle;resizable=0;points=[];autosize=1;strokeColor=none;fillColor=none;" vertex="1" parent="1">
          <mxGeometry x="885" y="820" width="60" height="30" as="geometry" />
        </mxCell>
        <mxCell id="wHdwL_rlRFG_409bep7D-196" value="&lt;b&gt;Duration&lt;/b&gt;" style="text;html=1;align=center;verticalAlign=middle;resizable=0;points=[];autosize=1;strokeColor=none;fillColor=none;" vertex="1" parent="1">
          <mxGeometry x="940" y="820" width="70" height="30" as="geometry" />
        </mxCell>
        <mxCell id="wHdwL_rlRFG_409bep7D-197" value="" style="endArrow=none;html=1;rounded=0;" edge="1" parent="1">
          <mxGeometry width="50" height="50" relative="1" as="geometry">
            <mxPoint x="890.41" y="855" as="sourcePoint" />
            <mxPoint x="889.9999999999999" y="815" as="targetPoint" />
          </mxGeometry>
        </mxCell>
        <mxCell id="wHdwL_rlRFG_409bep7D-198" value="" style="endArrow=none;html=1;rounded=0;" edge="1" parent="1">
          <mxGeometry width="50" height="50" relative="1" as="geometry">
            <mxPoint x="830.12" y="855" as="sourcePoint" />
            <mxPoint x="829.7099999999999" y="815" as="targetPoint" />
          </mxGeometry>
        </mxCell>
        <mxCell id="wHdwL_rlRFG_409bep7D-199" value="" style="endArrow=none;html=1;rounded=0;" edge="1" parent="1">
          <mxGeometry width="50" height="50" relative="1" as="geometry">
            <mxPoint x="795.12" y="855" as="sourcePoint" />
            <mxPoint x="794.7099999999999" y="815" as="targetPoint" />
          </mxGeometry>
        </mxCell>
        <mxCell id="wHdwL_rlRFG_409bep7D-200" value="" style="endArrow=none;html=1;rounded=0;" edge="1" parent="1">
          <mxGeometry width="50" height="50" relative="1" as="geometry">
            <mxPoint x="940.41" y="855" as="sourcePoint" />
            <mxPoint x="939.9999999999999" y="815" as="targetPoint" />
          </mxGeometry>
        </mxCell>
        <mxCell id="wHdwL_rlRFG_409bep7D-201" value="" style="endArrow=none;dashed=1;html=1;rounded=0;" edge="1" parent="1">
          <mxGeometry width="50" height="50" relative="1" as="geometry">
            <mxPoint x="690" y="845" as="sourcePoint" />
            <mxPoint x="750" y="845" as="targetPoint" />
          </mxGeometry>
        </mxCell>
        <mxCell id="wHdwL_rlRFG_409bep7D-202" value="" style="endArrow=classic;html=1;rounded=0;exitX=0.176;exitY=0.977;exitDx=0;exitDy=0;exitPerimeter=0;entryX=0.068;entryY=1.005;entryDx=0;entryDy=0;entryPerimeter=0;" edge="1" parent="1" source="wHdwL_rlRFG_409bep7D-179" target="wHdwL_rlRFG_409bep7D-131">
          <mxGeometry width="50" height="50" relative="1" as="geometry">
            <mxPoint x="720" y="760" as="sourcePoint" />
            <mxPoint x="700" y="660" as="targetPoint" />
            <Array as="points">
              <mxPoint x="738" y="880" />
              <mxPoint x="1050" y="880" />
              <mxPoint x="1050" y="680" />
              <mxPoint x="700" y="680" />
            </Array>
          </mxGeometry>
        </mxCell>
        <mxCell id="wHdwL_rlRFG_409bep7D-203" value="" style="endArrow=classic;html=1;rounded=0;exitX=0.057;exitY=1.006;exitDx=0;exitDy=0;exitPerimeter=0;entryX=0.041;entryY=1.125;entryDx=0;entryDy=0;entryPerimeter=0;" edge="1" parent="1" source="wHdwL_rlRFG_409bep7D-179" target="wHdwL_rlRFG_409bep7D-26">
          <mxGeometry width="50" height="50" relative="1" as="geometry">
            <mxPoint x="430" y="770" as="sourcePoint" />
            <mxPoint x="70" y="780" as="targetPoint" />
            <Array as="points">
              <mxPoint x="700" y="880" />
              <mxPoint x="400" y="880" />
              <mxPoint x="400" y="780" />
              <mxPoint x="70" y="780" />
            </Array>
          </mxGeometry>
        </mxCell>
        <mxCell id="wHdwL_rlRFG_409bep7D-205" value="" style="endArrow=none;html=1;rounded=0;" edge="1" parent="1">
          <mxGeometry width="50" height="50" relative="1" as="geometry">
            <mxPoint x="690" y="849.67" as="sourcePoint" />
            <mxPoint x="750" y="849.67" as="targetPoint" />
          </mxGeometry>
        </mxCell>
      </root>
    </mxGraphModel>
  </diagram>
</mxfile>
